<?xml version="1.0" encoding="utf-8"?>
<svg version="1.1" baseProfile="full"  width="595" height="842" viewBox="0 0 595 842" xmlns="http://www.w3.org/2000/svg" xmlns:xlink="http://www.w3.org/1999/xlink" xmlns:ev="http://www.w3.org/2001/xml-events">
<rect width="595" height="842" fill="#fff" cx="0" cy="0" />
<defs>
<rect id="p" width="12" height="12" />
</defs><g fill="#ffffff"><use x="148" y="271" xlink:href="#p" />
<use x="148" y="283" xlink:href="#p" />
<use x="148" y="295" xlink:href="#p" />
<use x="148" y="307" xlink:href="#p" />
<use x="148" y="319" xlink:href="#p" />
<use x="148" y="331" xlink:href="#p" />
<use x="148" y="343" xlink:href="#p" />
<use x="148" y="355" xlink:href="#p" />
<use x="148" y="367" xlink:href="#p" />
<use x="148" y="379" xlink:href="#p" />
<use x="148" y="391" xlink:href="#p" />
<use x="148" y="403" xlink:href="#p" />
<use x="148" y="415" xlink:href="#p" />
<use x="148" y="427" xlink:href="#p" />
<use x="148" y="439" xlink:href="#p" />
<use x="148" y="451" xlink:href="#p" />
<use x="148" y="463" xlink:href="#p" />
<use x="148" y="475" xlink:href="#p" />
<use x="148" y="487" xlink:href="#p" />
<use x="148" y="499" xlink:href="#p" />
<use x="148" y="511" xlink:href="#p" />
<use x="148" y="523" xlink:href="#p" />
<use x="148" y="535" xlink:href="#p" />
<use x="148" y="547" xlink:href="#p" />
<use x="148" y="559" xlink:href="#p" />
<use x="160" y="271" xlink:href="#p" />
<use x="160" y="283" xlink:href="#p" />
<use x="160" y="295" xlink:href="#p" />
<use x="160" y="307" xlink:href="#p" />
<use x="160" y="319" xlink:href="#p" />
<use x="160" y="331" xlink:href="#p" />
<use x="160" y="343" xlink:href="#p" />
<use x="160" y="355" xlink:href="#p" />
<use x="160" y="367" xlink:href="#p" />
<use x="160" y="379" xlink:href="#p" />
<use x="160" y="391" xlink:href="#p" />
<use x="160" y="403" xlink:href="#p" />
<use x="160" y="415" xlink:href="#p" />
<use x="160" y="427" xlink:href="#p" />
<use x="160" y="439" xlink:href="#p" />
<use x="160" y="451" xlink:href="#p" />
<use x="160" y="463" xlink:href="#p" />
<use x="160" y="475" xlink:href="#p" />
<use x="160" y="487" xlink:href="#p" />
<use x="160" y="499" xlink:href="#p" />
<use x="160" y="511" xlink:href="#p" />
<use x="160" y="523" xlink:href="#p" />
<use x="160" y="535" xlink:href="#p" />
<use x="160" y="547" xlink:href="#p" />
<use x="160" y="559" xlink:href="#p" />
<use x="172" y="271" xlink:href="#p" />
<use x="172" y="283" xlink:href="#p" />
<use x="172" y="379" xlink:href="#p" />
<use x="172" y="403" xlink:href="#p" />
<use x="172" y="439" xlink:href="#p" />
<use x="172" y="451" xlink:href="#p" />
<use x="172" y="547" xlink:href="#p" />
<use x="172" y="559" xlink:href="#p" />
<use x="184" y="271" xlink:href="#p" />
<use x="184" y="283" xlink:href="#p" />
<use x="184" y="307" xlink:href="#p" />
<use x="184" y="319" xlink:href="#p" />
<use x="184" y="331" xlink:href="#p" />
<use x="184" y="343" xlink:href="#p" />
<use x="184" y="355" xlink:href="#p" />
<use x="184" y="379" xlink:href="#p" />
<use x="184" y="403" xlink:href="#p" />
<use x="184" y="415" xlink:href="#p" />
<use x="184" y="427" xlink:href="#p" />
<use x="184" y="439" xlink:href="#p" />
<use x="184" y="451" xlink:href="#p" />
<use x="184" y="475" xlink:href="#p" />
<use x="184" y="487" xlink:href="#p" />
<use x="184" y="499" xlink:href="#p" />
<use x="184" y="511" xlink:href="#p" />
<use x="184" y="523" xlink:href="#p" />
<use x="184" y="547" xlink:href="#p" />
<use x="184" y="559" xlink:href="#p" />
<use x="196" y="271" xlink:href="#p" />
<use x="196" y="283" xlink:href="#p" />
<use x="196" y="307" xlink:href="#p" />
<use x="196" y="355" xlink:href="#p" />
<use x="196" y="379" xlink:href="#p" />
<use x="196" y="391" xlink:href="#p" />
<use x="196" y="415" xlink:href="#p" />
<use x="196" y="427" xlink:href="#p" />
<use x="196" y="439" xlink:href="#p" />
<use x="196" y="451" xlink:href="#p" />
<use x="196" y="475" xlink:href="#p" />
<use x="196" y="523" xlink:href="#p" />
<use x="196" y="547" xlink:href="#p" />
<use x="196" y="559" xlink:href="#p" />
<use x="208" y="271" xlink:href="#p" />
<use x="208" y="283" xlink:href="#p" />
<use x="208" y="307" xlink:href="#p" />
<use x="208" y="355" xlink:href="#p" />
<use x="208" y="379" xlink:href="#p" />
<use x="208" y="391" xlink:href="#p" />
<use x="208" y="415" xlink:href="#p" />
<use x="208" y="451" xlink:href="#p" />
<use x="208" y="475" xlink:href="#p" />
<use x="208" y="523" xlink:href="#p" />
<use x="208" y="547" xlink:href="#p" />
<use x="208" y="559" xlink:href="#p" />
<use x="220" y="271" xlink:href="#p" />
<use x="220" y="283" xlink:href="#p" />
<use x="220" y="307" xlink:href="#p" />
<use x="220" y="355" xlink:href="#p" />
<use x="220" y="379" xlink:href="#p" />
<use x="220" y="403" xlink:href="#p" />
<use x="220" y="427" xlink:href="#p" />
<use x="220" y="439" xlink:href="#p" />
<use x="220" y="451" xlink:href="#p" />
<use x="220" y="475" xlink:href="#p" />
<use x="220" y="523" xlink:href="#p" />
<use x="220" y="547" xlink:href="#p" />
<use x="220" y="559" xlink:href="#p" />
<use x="232" y="271" xlink:href="#p" />
<use x="232" y="283" xlink:href="#p" />
<use x="232" y="307" xlink:href="#p" />
<use x="232" y="319" xlink:href="#p" />
<use x="232" y="331" xlink:href="#p" />
<use x="232" y="343" xlink:href="#p" />
<use x="232" y="355" xlink:href="#p" />
<use x="232" y="379" xlink:href="#p" />
<use x="232" y="427" xlink:href="#p" />
<use x="232" y="439" xlink:href="#p" />
<use x="232" y="451" xlink:href="#p" />
<use x="232" y="475" xlink:href="#p" />
<use x="232" y="487" xlink:href="#p" />
<use x="232" y="499" xlink:href="#p" />
<use x="232" y="511" xlink:href="#p" />
<use x="232" y="523" xlink:href="#p" />
<use x="232" y="547" xlink:href="#p" />
<use x="232" y="559" xlink:href="#p" />
<use x="244" y="271" xlink:href="#p" />
<use x="244" y="283" xlink:href="#p" />
<use x="244" y="379" xlink:href="#p" />
<use x="244" y="403" xlink:href="#p" />
<use x="244" y="427" xlink:href="#p" />
<use x="244" y="451" xlink:href="#p" />
<use x="244" y="547" xlink:href="#p" />
<use x="244" y="559" xlink:href="#p" />
<use x="256" y="271" xlink:href="#p" />
<use x="256" y="283" xlink:href="#p" />
<use x="256" y="295" xlink:href="#p" />
<use x="256" y="307" xlink:href="#p" />
<use x="256" y="319" xlink:href="#p" />
<use x="256" y="331" xlink:href="#p" />
<use x="256" y="343" xlink:href="#p" />
<use x="256" y="355" xlink:href="#p" />
<use x="256" y="367" xlink:href="#p" />
<use x="256" y="379" xlink:href="#p" />
<use x="256" y="391" xlink:href="#p" />
<use x="256" y="415" xlink:href="#p" />
<use x="256" y="451" xlink:href="#p" />
<use x="256" y="463" xlink:href="#p" />
<use x="256" y="475" xlink:href="#p" />
<use x="256" y="487" xlink:href="#p" />
<use x="256" y="499" xlink:href="#p" />
<use x="256" y="511" xlink:href="#p" />
<use x="256" y="523" xlink:href="#p" />
<use x="256" y="535" xlink:href="#p" />
<use x="256" y="547" xlink:href="#p" />
<use x="256" y="559" xlink:href="#p" />
<use x="268" y="271" xlink:href="#p" />
<use x="268" y="283" xlink:href="#p" />
<use x="268" y="343" xlink:href="#p" />
<use x="268" y="379" xlink:href="#p" />
<use x="268" y="391" xlink:href="#p" />
<use x="268" y="415" xlink:href="#p" />
<use x="268" y="427" xlink:href="#p" />
<use x="268" y="439" xlink:href="#p" />
<use x="268" y="463" xlink:href="#p" />
<use x="268" y="499" xlink:href="#p" />
<use x="268" y="511" xlink:href="#p" />
<use x="268" y="547" xlink:href="#p" />
<use x="268" y="559" xlink:href="#p" />
<use x="280" y="271" xlink:href="#p" />
<use x="280" y="283" xlink:href="#p" />
<use x="280" y="307" xlink:href="#p" />
<use x="280" y="319" xlink:href="#p" />
<use x="280" y="343" xlink:href="#p" />
<use x="280" y="367" xlink:href="#p" />
<use x="280" y="403" xlink:href="#p" />
<use x="280" y="415" xlink:href="#p" />
<use x="280" y="427" xlink:href="#p" />
<use x="280" y="439" xlink:href="#p" />
<use x="280" y="451" xlink:href="#p" />
<use x="280" y="475" xlink:href="#p" />
<use x="280" y="499" xlink:href="#p" />
<use x="280" y="535" xlink:href="#p" />
<use x="280" y="547" xlink:href="#p" />
<use x="280" y="559" xlink:href="#p" />
<use x="292" y="271" xlink:href="#p" />
<use x="292" y="283" xlink:href="#p" />
<use x="292" y="319" xlink:href="#p" />
<use x="292" y="343" xlink:href="#p" />
<use x="292" y="355" xlink:href="#p" />
<use x="292" y="391" xlink:href="#p" />
<use x="292" y="427" xlink:href="#p" />
<use x="292" y="439" xlink:href="#p" />
<use x="292" y="451" xlink:href="#p" />
<use x="292" y="463" xlink:href="#p" />
<use x="292" y="511" xlink:href="#p" />
<use x="292" y="535" xlink:href="#p" />
<use x="292" y="547" xlink:href="#p" />
<use x="292" y="559" xlink:href="#p" />
<use x="304" y="271" xlink:href="#p" />
<use x="304" y="283" xlink:href="#p" />
<use x="304" y="295" xlink:href="#p" />
<use x="304" y="307" xlink:href="#p" />
<use x="304" y="319" xlink:href="#p" />
<use x="304" y="331" xlink:href="#p" />
<use x="304" y="343" xlink:href="#p" />
<use x="304" y="367" xlink:href="#p" />
<use x="304" y="379" xlink:href="#p" />
<use x="304" y="403" xlink:href="#p" />
<use x="304" y="415" xlink:href="#p" />
<use x="304" y="427" xlink:href="#p" />
<use x="304" y="439" xlink:href="#p" />
<use x="304" y="451" xlink:href="#p" />
<use x="304" y="463" xlink:href="#p" />
<use x="304" y="499" xlink:href="#p" />
<use x="304" y="523" xlink:href="#p" />
<use x="304" y="535" xlink:href="#p" />
<use x="304" y="547" xlink:href="#p" />
<use x="304" y="559" xlink:href="#p" />
<use x="316" y="271" xlink:href="#p" />
<use x="316" y="283" xlink:href="#p" />
<use x="316" y="319" xlink:href="#p" />
<use x="316" y="343" xlink:href="#p" />
<use x="316" y="391" xlink:href="#p" />
<use x="316" y="403" xlink:href="#p" />
<use x="316" y="415" xlink:href="#p" />
<use x="316" y="451" xlink:href="#p" />
<use x="316" y="463" xlink:href="#p" />
<use x="316" y="487" xlink:href="#p" />
<use x="316" y="499" xlink:href="#p" />
<use x="316" y="511" xlink:href="#p" />
<use x="316" y="547" xlink:href="#p" />
<use x="316" y="559" xlink:href="#p" />
<use x="328" y="271" xlink:href="#p" />
<use x="328" y="283" xlink:href="#p" />
<use x="328" y="295" xlink:href="#p" />
<use x="328" y="307" xlink:href="#p" />
<use x="328" y="319" xlink:href="#p" />
<use x="328" y="331" xlink:href="#p" />
<use x="328" y="343" xlink:href="#p" />
<use x="328" y="355" xlink:href="#p" />
<use x="328" y="367" xlink:href="#p" />
<use x="328" y="379" xlink:href="#p" />
<use x="328" y="391" xlink:href="#p" />
<use x="328" y="415" xlink:href="#p" />
<use x="328" y="499" xlink:href="#p" />
<use x="328" y="511" xlink:href="#p" />
<use x="328" y="535" xlink:href="#p" />
<use x="328" y="547" xlink:href="#p" />
<use x="328" y="559" xlink:href="#p" />
<use x="340" y="271" xlink:href="#p" />
<use x="340" y="283" xlink:href="#p" />
<use x="340" y="379" xlink:href="#p" />
<use x="340" y="391" xlink:href="#p" />
<use x="340" y="403" xlink:href="#p" />
<use x="340" y="415" xlink:href="#p" />
<use x="340" y="427" xlink:href="#p" />
<use x="340" y="439" xlink:href="#p" />
<use x="340" y="463" xlink:href="#p" />
<use x="340" y="475" xlink:href="#p" />
<use x="340" y="487" xlink:href="#p" />
<use x="340" y="499" xlink:href="#p" />
<use x="340" y="523" xlink:href="#p" />
<use x="340" y="535" xlink:href="#p" />
<use x="340" y="547" xlink:href="#p" />
<use x="340" y="559" xlink:href="#p" />
<use x="352" y="271" xlink:href="#p" />
<use x="352" y="283" xlink:href="#p" />
<use x="352" y="307" xlink:href="#p" />
<use x="352" y="319" xlink:href="#p" />
<use x="352" y="331" xlink:href="#p" />
<use x="352" y="343" xlink:href="#p" />
<use x="352" y="355" xlink:href="#p" />
<use x="352" y="379" xlink:href="#p" />
<use x="352" y="403" xlink:href="#p" />
<use x="352" y="415" xlink:href="#p" />
<use x="352" y="427" xlink:href="#p" />
<use x="352" y="439" xlink:href="#p" />
<use x="352" y="451" xlink:href="#p" />
<use x="352" y="463" xlink:href="#p" />
<use x="352" y="487" xlink:href="#p" />
<use x="352" y="511" xlink:href="#p" />
<use x="352" y="547" xlink:href="#p" />
<use x="352" y="559" xlink:href="#p" />
<use x="364" y="271" xlink:href="#p" />
<use x="364" y="283" xlink:href="#p" />
<use x="364" y="307" xlink:href="#p" />
<use x="364" y="355" xlink:href="#p" />
<use x="364" y="379" xlink:href="#p" />
<use x="364" y="391" xlink:href="#p" />
<use x="364" y="427" xlink:href="#p" />
<use x="364" y="439" xlink:href="#p" />
<use x="364" y="475" xlink:href="#p" />
<use x="364" y="487" xlink:href="#p" />
<use x="364" y="523" xlink:href="#p" />
<use x="364" y="535" xlink:href="#p" />
<use x="364" y="547" xlink:href="#p" />
<use x="364" y="559" xlink:href="#p" />
<use x="376" y="271" xlink:href="#p" />
<use x="376" y="283" xlink:href="#p" />
<use x="376" y="307" xlink:href="#p" />
<use x="376" y="355" xlink:href="#p" />
<use x="376" y="379" xlink:href="#p" />
<use x="376" y="415" xlink:href="#p" />
<use x="376" y="427" xlink:href="#p" />
<use x="376" y="463" xlink:href="#p" />
<use x="376" y="487" xlink:href="#p" />
<use x="376" y="523" xlink:href="#p" />
<use x="376" y="535" xlink:href="#p" />
<use x="376" y="547" xlink:href="#p" />
<use x="376" y="559" xlink:href="#p" />
<use x="388" y="271" xlink:href="#p" />
<use x="388" y="283" xlink:href="#p" />
<use x="388" y="307" xlink:href="#p" />
<use x="388" y="355" xlink:href="#p" />
<use x="388" y="379" xlink:href="#p" />
<use x="388" y="427" xlink:href="#p" />
<use x="388" y="439" xlink:href="#p" />
<use x="388" y="475" xlink:href="#p" />
<use x="388" y="487" xlink:href="#p" />
<use x="388" y="499" xlink:href="#p" />
<use x="388" y="523" xlink:href="#p" />
<use x="388" y="535" xlink:href="#p" />
<use x="388" y="547" xlink:href="#p" />
<use x="388" y="559" xlink:href="#p" />
<use x="400" y="271" xlink:href="#p" />
<use x="400" y="283" xlink:href="#p" />
<use x="400" y="307" xlink:href="#p" />
<use x="400" y="319" xlink:href="#p" />
<use x="400" y="331" xlink:href="#p" />
<use x="400" y="343" xlink:href="#p" />
<use x="400" y="355" xlink:href="#p" />
<use x="400" y="379" xlink:href="#p" />
<use x="400" y="403" xlink:href="#p" />
<use x="400" y="439" xlink:href="#p" />
<use x="400" y="451" xlink:href="#p" />
<use x="400" y="487" xlink:href="#p" />
<use x="400" y="511" xlink:href="#p" />
<use x="400" y="523" xlink:href="#p" />
<use x="400" y="535" xlink:href="#p" />
<use x="400" y="547" xlink:href="#p" />
<use x="400" y="559" xlink:href="#p" />
<use x="412" y="271" xlink:href="#p" />
<use x="412" y="283" xlink:href="#p" />
<use x="412" y="379" xlink:href="#p" />
<use x="412" y="403" xlink:href="#p" />
<use x="412" y="415" xlink:href="#p" />
<use x="412" y="451" xlink:href="#p" />
<use x="412" y="463" xlink:href="#p" />
<use x="412" y="487" xlink:href="#p" />
<use x="412" y="511" xlink:href="#p" />
<use x="412" y="523" xlink:href="#p" />
<use x="412" y="547" xlink:href="#p" />
<use x="412" y="559" xlink:href="#p" />
<use x="424" y="271" xlink:href="#p" />
<use x="424" y="283" xlink:href="#p" />
<use x="424" y="295" xlink:href="#p" />
<use x="424" y="307" xlink:href="#p" />
<use x="424" y="319" xlink:href="#p" />
<use x="424" y="331" xlink:href="#p" />
<use x="424" y="343" xlink:href="#p" />
<use x="424" y="355" xlink:href="#p" />
<use x="424" y="367" xlink:href="#p" />
<use x="424" y="379" xlink:href="#p" />
<use x="424" y="391" xlink:href="#p" />
<use x="424" y="403" xlink:href="#p" />
<use x="424" y="415" xlink:href="#p" />
<use x="424" y="427" xlink:href="#p" />
<use x="424" y="439" xlink:href="#p" />
<use x="424" y="451" xlink:href="#p" />
<use x="424" y="463" xlink:href="#p" />
<use x="424" y="475" xlink:href="#p" />
<use x="424" y="487" xlink:href="#p" />
<use x="424" y="499" xlink:href="#p" />
<use x="424" y="511" xlink:href="#p" />
<use x="424" y="523" xlink:href="#p" />
<use x="424" y="535" xlink:href="#p" />
<use x="424" y="547" xlink:href="#p" />
<use x="424" y="559" xlink:href="#p" />
<use x="436" y="271" xlink:href="#p" />
<use x="436" y="283" xlink:href="#p" />
<use x="436" y="295" xlink:href="#p" />
<use x="436" y="307" xlink:href="#p" />
<use x="436" y="319" xlink:href="#p" />
<use x="436" y="331" xlink:href="#p" />
<use x="436" y="343" xlink:href="#p" />
<use x="436" y="355" xlink:href="#p" />
<use x="436" y="367" xlink:href="#p" />
<use x="436" y="379" xlink:href="#p" />
<use x="436" y="391" xlink:href="#p" />
<use x="436" y="403" xlink:href="#p" />
<use x="436" y="415" xlink:href="#p" />
<use x="436" y="427" xlink:href="#p" />
<use x="436" y="439" xlink:href="#p" />
<use x="436" y="451" xlink:href="#p" />
<use x="436" y="463" xlink:href="#p" />
<use x="436" y="475" xlink:href="#p" />
<use x="436" y="487" xlink:href="#p" />
<use x="436" y="499" xlink:href="#p" />
<use x="436" y="511" xlink:href="#p" />
<use x="436" y="523" xlink:href="#p" />
<use x="436" y="535" xlink:href="#p" />
<use x="436" y="547" xlink:href="#p" />
<use x="436" y="559" xlink:href="#p" />
</g><g fill="#000000"><use x="172" y="295" xlink:href="#p" />
<use x="172" y="307" xlink:href="#p" />
<use x="172" y="319" xlink:href="#p" />
<use x="172" y="331" xlink:href="#p" />
<use x="172" y="343" xlink:href="#p" />
<use x="172" y="355" xlink:href="#p" />
<use x="172" y="367" xlink:href="#p" />
<use x="172" y="391" xlink:href="#p" />
<use x="172" y="415" xlink:href="#p" />
<use x="172" y="427" xlink:href="#p" />
<use x="172" y="463" xlink:href="#p" />
<use x="172" y="475" xlink:href="#p" />
<use x="172" y="487" xlink:href="#p" />
<use x="172" y="499" xlink:href="#p" />
<use x="172" y="511" xlink:href="#p" />
<use x="172" y="523" xlink:href="#p" />
<use x="172" y="535" xlink:href="#p" />
<use x="184" y="295" xlink:href="#p" />
<use x="184" y="367" xlink:href="#p" />
<use x="184" y="391" xlink:href="#p" />
<use x="184" y="463" xlink:href="#p" />
<use x="184" y="535" xlink:href="#p" />
<use x="196" y="295" xlink:href="#p" />
<use x="196" y="319" xlink:href="#p" />
<use x="196" y="331" xlink:href="#p" />
<use x="196" y="343" xlink:href="#p" />
<use x="196" y="367" xlink:href="#p" />
<use x="196" y="403" xlink:href="#p" />
<use x="196" y="463" xlink:href="#p" />
<use x="196" y="487" xlink:href="#p" />
<use x="196" y="499" xlink:href="#p" />
<use x="196" y="511" xlink:href="#p" />
<use x="196" y="535" xlink:href="#p" />
<use x="208" y="295" xlink:href="#p" />
<use x="208" y="319" xlink:href="#p" />
<use x="208" y="331" xlink:href="#p" />
<use x="208" y="343" xlink:href="#p" />
<use x="208" y="367" xlink:href="#p" />
<use x="208" y="403" xlink:href="#p" />
<use x="208" y="427" xlink:href="#p" />
<use x="208" y="439" xlink:href="#p" />
<use x="208" y="463" xlink:href="#p" />
<use x="208" y="487" xlink:href="#p" />
<use x="208" y="499" xlink:href="#p" />
<use x="208" y="511" xlink:href="#p" />
<use x="208" y="535" xlink:href="#p" />
<use x="220" y="295" xlink:href="#p" />
<use x="220" y="319" xlink:href="#p" />
<use x="220" y="331" xlink:href="#p" />
<use x="220" y="343" xlink:href="#p" />
<use x="220" y="367" xlink:href="#p" />
<use x="220" y="391" xlink:href="#p" />
<use x="220" y="415" xlink:href="#p" />
<use x="220" y="463" xlink:href="#p" />
<use x="220" y="487" xlink:href="#p" />
<use x="220" y="499" xlink:href="#p" />
<use x="220" y="511" xlink:href="#p" />
<use x="220" y="535" xlink:href="#p" />
<use x="232" y="295" xlink:href="#p" />
<use x="232" y="367" xlink:href="#p" />
<use x="232" y="391" xlink:href="#p" />
<use x="232" y="403" xlink:href="#p" />
<use x="232" y="415" xlink:href="#p" />
<use x="232" y="463" xlink:href="#p" />
<use x="232" y="535" xlink:href="#p" />
<use x="244" y="295" xlink:href="#p" />
<use x="244" y="307" xlink:href="#p" />
<use x="244" y="319" xlink:href="#p" />
<use x="244" y="331" xlink:href="#p" />
<use x="244" y="343" xlink:href="#p" />
<use x="244" y="355" xlink:href="#p" />
<use x="244" y="367" xlink:href="#p" />
<use x="244" y="391" xlink:href="#p" />
<use x="244" y="415" xlink:href="#p" />
<use x="244" y="439" xlink:href="#p" />
<use x="244" y="463" xlink:href="#p" />
<use x="244" y="475" xlink:href="#p" />
<use x="244" y="487" xlink:href="#p" />
<use x="244" y="499" xlink:href="#p" />
<use x="244" y="511" xlink:href="#p" />
<use x="244" y="523" xlink:href="#p" />
<use x="244" y="535" xlink:href="#p" />
<use x="256" y="403" xlink:href="#p" />
<use x="256" y="427" xlink:href="#p" />
<use x="256" y="439" xlink:href="#p" />
<use x="268" y="295" xlink:href="#p" />
<use x="268" y="307" xlink:href="#p" />
<use x="268" y="319" xlink:href="#p" />
<use x="268" y="331" xlink:href="#p" />
<use x="268" y="355" xlink:href="#p" />
<use x="268" y="367" xlink:href="#p" />
<use x="268" y="403" xlink:href="#p" />
<use x="268" y="451" xlink:href="#p" />
<use x="268" y="475" xlink:href="#p" />
<use x="268" y="487" xlink:href="#p" />
<use x="268" y="523" xlink:href="#p" />
<use x="268" y="535" xlink:href="#p" />
<use x="280" y="295" xlink:href="#p" />
<use x="280" y="331" xlink:href="#p" />
<use x="280" y="355" xlink:href="#p" />
<use x="280" y="379" xlink:href="#p" />
<use x="280" y="391" xlink:href="#p" />
<use x="280" y="463" xlink:href="#p" />
<use x="280" y="487" xlink:href="#p" />
<use x="280" y="511" xlink:href="#p" />
<use x="280" y="523" xlink:href="#p" />
<use x="292" y="295" xlink:href="#p" />
<use x="292" y="307" xlink:href="#p" />
<use x="292" y="331" xlink:href="#p" />
<use x="292" y="367" xlink:href="#p" />
<use x="292" y="379" xlink:href="#p" />
<use x="292" y="403" xlink:href="#p" />
<use x="292" y="415" xlink:href="#p" />
<use x="292" y="475" xlink:href="#p" />
<use x="292" y="487" xlink:href="#p" />
<use x="292" y="499" xlink:href="#p" />
<use x="292" y="523" xlink:href="#p" />
<use x="304" y="355" xlink:href="#p" />
<use x="304" y="391" xlink:href="#p" />
<use x="304" y="475" xlink:href="#p" />
<use x="304" y="487" xlink:href="#p" />
<use x="304" y="511" xlink:href="#p" />
<use x="316" y="295" xlink:href="#p" />
<use x="316" y="307" xlink:href="#p" />
<use x="316" y="331" xlink:href="#p" />
<use x="316" y="355" xlink:href="#p" />
<use x="316" y="367" xlink:href="#p" />
<use x="316" y="379" xlink:href="#p" />
<use x="316" y="427" xlink:href="#p" />
<use x="316" y="439" xlink:href="#p" />
<use x="316" y="475" xlink:href="#p" />
<use x="316" y="523" xlink:href="#p" />
<use x="316" y="535" xlink:href="#p" />
<use x="328" y="403" xlink:href="#p" />
<use x="328" y="427" xlink:href="#p" />
<use x="328" y="439" xlink:href="#p" />
<use x="328" y="451" xlink:href="#p" />
<use x="328" y="463" xlink:href="#p" />
<use x="328" y="475" xlink:href="#p" />
<use x="328" y="487" xlink:href="#p" />
<use x="328" y="523" xlink:href="#p" />
<use x="340" y="295" xlink:href="#p" />
<use x="340" y="307" xlink:href="#p" />
<use x="340" y="319" xlink:href="#p" />
<use x="340" y="331" xlink:href="#p" />
<use x="340" y="343" xlink:href="#p" />
<use x="340" y="355" xlink:href="#p" />
<use x="340" y="367" xlink:href="#p" />
<use x="340" y="451" xlink:href="#p" />
<use x="340" y="511" xlink:href="#p" />
<use x="352" y="295" xlink:href="#p" />
<use x="352" y="367" xlink:href="#p" />
<use x="352" y="391" xlink:href="#p" />
<use x="352" y="475" xlink:href="#p" />
<use x="352" y="499" xlink:href="#p" />
<use x="352" y="523" xlink:href="#p" />
<use x="352" y="535" xlink:href="#p" />
<use x="364" y="295" xlink:href="#p" />
<use x="364" y="319" xlink:href="#p" />
<use x="364" y="331" xlink:href="#p" />
<use x="364" y="343" xlink:href="#p" />
<use x="364" y="367" xlink:href="#p" />
<use x="364" y="403" xlink:href="#p" />
<use x="364" y="415" xlink:href="#p" />
<use x="364" y="451" xlink:href="#p" />
<use x="364" y="463" xlink:href="#p" />
<use x="364" y="499" xlink:href="#p" />
<use x="364" y="511" xlink:href="#p" />
<use x="376" y="295" xlink:href="#p" />
<use x="376" y="319" xlink:href="#p" />
<use x="376" y="331" xlink:href="#p" />
<use x="376" y="343" xlink:href="#p" />
<use x="376" y="367" xlink:href="#p" />
<use x="376" y="391" xlink:href="#p" />
<use x="376" y="403" xlink:href="#p" />
<use x="376" y="439" xlink:href="#p" />
<use x="376" y="451" xlink:href="#p" />
<use x="376" y="475" xlink:href="#p" />
<use x="376" y="499" xlink:href="#p" />
<use x="376" y="511" xlink:href="#p" />
<use x="388" y="295" xlink:href="#p" />
<use x="388" y="319" xlink:href="#p" />
<use x="388" y="331" xlink:href="#p" />
<use x="388" y="343" xlink:href="#p" />
<use x="388" y="367" xlink:href="#p" />
<use x="388" y="391" xlink:href="#p" />
<use x="388" y="403" xlink:href="#p" />
<use x="388" y="415" xlink:href="#p" />
<use x="388" y="451" xlink:href="#p" />
<use x="388" y="463" xlink:href="#p" />
<use x="388" y="511" xlink:href="#p" />
<use x="400" y="295" xlink:href="#p" />
<use x="400" y="367" xlink:href="#p" />
<use x="400" y="391" xlink:href="#p" />
<use x="400" y="415" xlink:href="#p" />
<use x="400" y="427" xlink:href="#p" />
<use x="400" y="463" xlink:href="#p" />
<use x="400" y="475" xlink:href="#p" />
<use x="400" y="499" xlink:href="#p" />
<use x="412" y="295" xlink:href="#p" />
<use x="412" y="307" xlink:href="#p" />
<use x="412" y="319" xlink:href="#p" />
<use x="412" y="331" xlink:href="#p" />
<use x="412" y="343" xlink:href="#p" />
<use x="412" y="355" xlink:href="#p" />
<use x="412" y="367" xlink:href="#p" />
<use x="412" y="391" xlink:href="#p" />
<use x="412" y="427" xlink:href="#p" />
<use x="412" y="439" xlink:href="#p" />
<use x="412" y="475" xlink:href="#p" />
<use x="412" y="499" xlink:href="#p" />
<use x="412" y="535" xlink:href="#p" />
</g></svg>